<svg width="24" height="17" viewBox="0 0 24 17" fill="none" xmlns="http://www.w3.org/2000/svg">
<path d="M22.6667 0.119141H1.33333C0.6 0.119141 0 0.719141 0 1.45247V9.66581C0 13.6658 2 16.3325 6.66667 16.3325H17.3333C22 16.3325 24 13.6658 24 9.66581V1.45247C24 0.719141 23.4 0.119141 22.6667 0.119141ZM8.28 11.2791C8.21333 11.3325 8.14667 11.3991 8.08 11.4391C8 11.4925 7.92 11.5325 7.84 11.5591C7.76 11.5991 7.68 11.6258 7.6 11.6391C7.50667 11.6525 7.42667 11.6658 7.33333 11.6658C7.16 11.6658 6.98667 11.6258 6.82667 11.5591C6.65333 11.4925 6.52 11.3991 6.38667 11.2791C6.14667 11.0258 6 10.6791 6 10.3325C6 9.98581 6.14667 9.63914 6.38667 9.38581C6.52 9.26581 6.65333 9.17247 6.82667 9.10581C7.06667 8.99914 7.33333 8.97248 7.6 9.02581C7.68 9.03914 7.76 9.06581 7.84 9.10581C7.92 9.13247 8 9.17247 8.08 9.22581C8.14667 9.27914 8.21333 9.33248 8.28 9.38581C8.52 9.63914 8.66667 9.98581 8.66667 10.3325C8.66667 10.6791 8.52 11.0258 8.28 11.2791ZM8.28 6.61247C8.02667 6.85247 7.68 6.99914 7.33333 6.99914C6.98667 6.99914 6.64 6.85247 6.38667 6.61247C6.14667 6.35914 6 6.01247 6 5.66581C6 5.31914 6.14667 4.97247 6.38667 4.71914C6.76 4.34581 7.34667 4.22581 7.84 4.43914C8.01333 4.50581 8.16 4.59914 8.28 4.71914C8.52 4.97247 8.66667 5.31914 8.66667 5.66581C8.66667 6.01247 8.52 6.35914 8.28 6.61247ZM12.9467 11.2791C12.6933 11.5191 12.3467 11.6658 12 11.6658C11.6533 11.6658 11.3067 11.5191 11.0533 11.2791C10.8133 11.0258 10.6667 10.6791 10.6667 10.3325C10.6667 9.98581 10.8133 9.63914 11.0533 9.38581C11.5467 8.89248 12.4533 8.89248 12.9467 9.38581C13.1867 9.63914 13.3333 9.98581 13.3333 10.3325C13.3333 10.6791 13.1867 11.0258 12.9467 11.2791ZM12.9467 6.61247C12.88 6.66581 12.8133 6.71914 12.7467 6.77247C12.6667 6.82581 12.5867 6.86581 12.5067 6.89247C12.4267 6.93247 12.3467 6.95914 12.2667 6.97247C12.1733 6.98581 12.0933 6.99914 12 6.99914C11.6533 6.99914 11.3067 6.85247 11.0533 6.61247C10.8133 6.35914 10.6667 6.01247 10.6667 5.66581C10.6667 5.31914 10.8133 4.97247 11.0533 4.71914C11.1733 4.59914 11.32 4.50581 11.4933 4.43914C11.9867 4.22581 12.5733 4.34581 12.9467 4.71914C13.1867 4.97247 13.3333 5.31914 13.3333 5.66581C13.3333 6.01247 13.1867 6.35914 12.9467 6.61247ZM17.6133 11.2791C17.36 11.5191 17.0133 11.6658 16.6667 11.6658C16.32 11.6658 15.9733 11.5191 15.72 11.2791C15.48 11.0258 15.3333 10.6791 15.3333 10.3325C15.3333 9.98581 15.48 9.63914 15.72 9.38581C16.2133 8.89248 17.12 8.89248 17.6133 9.38581C17.8533 9.63914 18 9.98581 18 10.3325C18 10.6791 17.8533 11.0258 17.6133 11.2791ZM17.6133 6.61247C17.5467 6.66581 17.48 6.71914 17.4133 6.77247C17.3333 6.82581 17.2533 6.86581 17.1733 6.89247C17.0933 6.93247 17.0133 6.95914 16.9333 6.97247C16.84 6.98581 16.7467 6.99914 16.6667 6.99914C16.32 6.99914 15.9733 6.85247 15.72 6.61247C15.48 6.35914 15.3333 6.01247 15.3333 5.66581C15.3333 5.31914 15.48 4.97247 15.72 4.71914C15.8533 4.59914 15.9867 4.50581 16.16 4.43914C16.4 4.33247 16.6667 4.30581 16.9333 4.35914C17.0133 4.37247 17.0933 4.39914 17.1733 4.43914C17.2533 4.46581 17.3333 4.50581 17.4133 4.55914C17.48 4.61247 17.5467 4.66581 17.6133 4.71914C17.8533 4.97247 18 5.31914 18 5.66581C18 6.01247 17.8533 6.35914 17.6133 6.61247Z" fill="white"/>
</svg>
