<svg width="28" height="28" viewBox="0 0 28 28" fill="none" xmlns="http://www.w3.org/2000/svg">
<path d="M23.387 8.86602C21.2937 8.41268 19.587 6.70602 19.1337 4.61268C18.9603 3.79935 18.947 3.01268 19.0937 2.26602C19.267 1.43935 18.6537 0.666016 17.8003 0.666016H7.33366C3.65366 0.666016 0.666992 3.65268 0.666992 7.33268V16.5993C0.666992 20.2793 3.65366 23.266 7.33366 23.266H9.33366C9.70699 23.266 10.187 23.506 10.4003 23.7994L12.4003 26.4527C13.2803 27.626 14.7203 27.626 15.6003 26.4527L17.6003 23.7994C17.8537 23.466 18.2403 23.266 18.667 23.266H20.6803C24.3603 23.266 27.3337 20.2927 27.3337 16.6127V10.1993C27.3337 9.35935 26.5603 8.74602 25.7337 8.90602C24.987 9.03935 24.2003 9.03935 23.387 8.86602ZM8.66699 13.9993C7.92033 13.9993 7.33366 13.3993 7.33366 12.666C7.33366 11.9327 7.92033 11.3327 8.66699 11.3327C9.40033 11.3327 10.0003 11.9327 10.0003 12.666C10.0003 13.3993 9.41366 13.9993 8.66699 13.9993ZM14.0003 13.9993C13.2537 13.9993 12.667 13.3993 12.667 12.666C12.667 11.9327 13.2537 11.3327 14.0003 11.3327C14.7337 11.3327 15.3337 11.9327 15.3337 12.666C15.3337 13.3993 14.747 13.9993 14.0003 13.9993ZM19.3337 13.9993C18.587 13.9993 18.0003 13.3993 18.0003 12.666C18.0003 11.9327 18.587 11.3327 19.3337 11.3327C20.067 11.3327 20.667 11.9327 20.667 12.666C20.667 13.3993 20.0803 13.9993 19.3337 13.9993Z" fill="white"/>
</svg>
