<svg width="8" height="16" viewBox="0 0 8 16" fill="none" xmlns="http://www.w3.org/2000/svg">
<path d="M7 16V11C7 9.586 7 8.879 6.56 8.44C6.122 8 5.415 8 4 8C2.585 8 1.879 8 1.44 8.44C1 8.878 1 9.585 1 11V16M6 3.5C6 4.03043 5.78929 4.53914 5.41421 4.91421C5.03914 5.28929 4.53043 5.5 4 5.5C3.46957 5.5 2.96086 5.28929 2.58579 4.91421C2.21071 4.53914 2 4.03043 2 3.5C2 2.96957 2.21071 2.46086 2.58579 2.08579C2.96086 1.71071 3.46957 1.5 4 1.5C4.53043 1.5 5.03914 1.71071 5.41421 2.08579C5.78929 2.46086 6 2.96957 6 3.5Z" stroke="#4545FE" stroke-width="1.5"/>
</svg>
